<svg id="visual" viewBox="0 0 900 600" width="900" height="600" xmlns="http://www.w3.org/2000/svg" xmlns:xlink="http://www.w3.org/1999/xlink" version="1.1"><g transform="translate(447.399428572709 309.9678793811596)"><path d="M160 -215.7C206.8 -186.3 243.7 -138.7 254.5 -87C265.3 -35.3 250.1 20.5 230 72.4C209.9 124.2 184.9 172.1 145.7 199.9C106.6 227.7 53.3 235.4 3.1 231C-47 226.7 -94 210.4 -129.7 181.5C-165.4 152.6 -189.7 111.1 -213.7 63.3C-237.8 15.5 -261.5 -38.6 -249.8 -83.1C-238 -127.6 -190.7 -162.5 -143.2 -191.7C-95.6 -220.9 -47.8 -244.5 4.4 -250.5C56.6 -256.6 113.2 -245.2 160 -215.7" fill="#CCCCCC"></path></g></svg>