<?xml version="1.0" standalone="no"?>
<svg viewBox="0 0 200 200" xmlns="http://www.w3.org/2000/svg">
  <path fill="#E8DAFF" d="M37.4,-57.4C51.9,-49,69.2,-44.2,77.1,-33.3C85,-22.4,83.4,-5.3,75.3,6.8C67.3,18.9,52.7,26,43.4,38.7C34.1,51.5,30,70,19.7,77.9C9.4,85.8,-7.1,83.2,-18.4,74.4C-29.6,65.7,-35.6,50.8,-48,39.8C-60.5,28.7,-79.5,21.4,-81.9,11.2C-84.3,0.9,-70.2,-12.4,-58.9,-22.7C-47.6,-33,-39.1,-40.3,-29.7,-51C-20.4,-61.7,-10.2,-75.8,0.7,-76.8C11.5,-77.8,23,-65.8,37.4,-57.4Z" transform="translate(100 100)" />
</svg>
