<svg id="visual" viewBox="0 0 900 600" width="900" height="600" xmlns="http://www.w3.org/2000/svg" xmlns:xlink="http://www.w3.org/1999/xlink" version="1.1"><g transform="translate(459.14498586626 316.53721080833844)"><path d="M119.9 -173C159.8 -136 199.7 -106.9 218.3 -66.9C236.8 -26.9 234 24.1 217 68.8C200.1 113.4 169.1 151.8 130.6 182.1C92.1 212.4 46 234.7 4.7 228.3C-36.7 221.9 -73.5 186.8 -118 158.4C-162.6 130.1 -214.9 108.5 -236.6 70.1C-258.4 31.8 -249.5 -23.2 -229.7 -71.8C-210 -120.3 -179.3 -162.5 -139.2 -199.5C-99.1 -236.5 -49.6 -268.2 -4.8 -261.6C40 -255 79.9 -210 119.9 -173" fill="#4FACF7"></path></g></svg>