<svg id="visual" viewBox="0 0 900 600" width="900" height="600" xmlns="http://www.w3.org/2000/svg" xmlns:xlink="http://www.w3.org/1999/xlink" version="1.1"><g transform="translate(462.63293619903385 408.90571173570896)"><path d="M354.8 -570.3C456.2 -486.9 532.4 -382.4 597.1 -265.4C661.7 -148.5 714.9 -19 675.6 81.1C636.3 181.2 504.4 252 406.6 336.3C308.7 420.6 244.8 518.3 161.5 536.4C78.3 554.6 -24.2 493.2 -128.3 454.6C-232.4 416 -338 400.2 -458.6 348.6C-579.2 297 -714.7 209.6 -714.3 112C-713.9 14.3 -577.5 -93.6 -516.9 -240.1C-456.3 -386.7 -471.4 -571.9 -397.9 -668C-324.4 -764.1 -162.2 -771 -17.8 -743.4C126.7 -715.8 253.4 -653.6 354.8 -570.3" fill="#CCCCCC"></path></g></svg>